solid OpenSCAD_Model
  facet normal 1 0 0
    outer loop
      vertex 26 20 13
      vertex 26 6 2
      vertex 26 20 -13
    endloop
  endfacet
  facet normal 1 0 0
    outer loop
      vertex 26 20 13
      vertex 26 -6 2
      vertex 26 6 2
    endloop
  endfacet
  facet normal 1 0 0
    outer loop
      vertex 26 -20 -13
      vertex 26 -6 2
      vertex 26 -20 13
    endloop
  endfacet
  facet normal 1 -0 0
    outer loop
      vertex 26 -20 13
      vertex 26 -6 2
      vertex 26 20 13
    endloop
  endfacet
  facet normal 1 -0 0
    outer loop
      vertex 26 6 -6
      vertex 26 20 -13
      vertex 26 6 2
    endloop
  endfacet
  facet normal 1 -0 0
    outer loop
      vertex 26 -6 -6
      vertex 26 20 -13
      vertex 26 6 -6
    endloop
  endfacet
  facet normal 1 0 0
    outer loop
      vertex 26 -6 -6
      vertex 26 -20 -13
      vertex 26 20 -13
    endloop
  endfacet
  facet normal 1 0 0
    outer loop
      vertex 26 -6 2
      vertex 26 -20 -13
      vertex 26 -6 -6
    endloop
  endfacet
  facet normal 0 0 1
    outer loop
      vertex 26 20 13
      vertex 23.8 17.8 13
      vertex 26 -20 13
    endloop
  endfacet
  facet normal 0 0 1
    outer loop
      vertex 26 20 13
      vertex -23.8 17.8 13
      vertex 23.8 17.8 13
    endloop
  endfacet
  facet normal 0 0 1
    outer loop
      vertex -23.8 17.8 13
      vertex -26 20 13
      vertex -23.8 -17.8 13
    endloop
  endfacet
  facet normal -0 0 1
    outer loop
      vertex -26 20 13
      vertex -23.8 17.8 13
      vertex 26 20 13
    endloop
  endfacet
  facet normal -0 0 1
    outer loop
      vertex 23.8 -17.8 13
      vertex 26 -20 13
      vertex 23.8 17.8 13
    endloop
  endfacet
  facet normal -0 0 1
    outer loop
      vertex -23.8 -17.8 13
      vertex 26 -20 13
      vertex 23.8 -17.8 13
    endloop
  endfacet
  facet normal 0 0 1
    outer loop
      vertex -23.8 -17.8 13
      vertex -26 -20 13
      vertex 26 -20 13
    endloop
  endfacet
  facet normal 0 0 1
    outer loop
      vertex -26 -20 13
      vertex -23.8 -17.8 13
      vertex -26 20 13
    endloop
  endfacet
  facet normal 0 0 -1
    outer loop
      vertex -26 -20 -13
      vertex 26 20 -13
      vertex 26 -20 -13
    endloop
  endfacet
  facet normal -0 0 -1
    outer loop
      vertex 26 20 -13
      vertex -26 -20 -13
      vertex -26 20 -13
    endloop
  endfacet
  facet normal -1 0 0
    outer loop
      vertex -26 1.93185 4.48236
      vertex -26 20 13
      vertex -26 20 -13
    endloop
  endfacet
  facet normal -1 0 0
    outer loop
      vertex -26 20 13
      vertex -26 1.93185 4.48236
      vertex -26 2 5
    endloop
  endfacet
  facet normal -1 0 0
    outer loop
      vertex -26 20 -13
      vertex -26 1.73205 4
      vertex -26 1.93185 4.48236
    endloop
  endfacet
  facet normal -1 0 0
    outer loop
      vertex -26 20 -13
      vertex -26 1.41421 3.58579
      vertex -26 1.73205 4
    endloop
  endfacet
  facet normal -1 0 0
    outer loop
      vertex -26 20 -13
      vertex -26 1 3.26795
      vertex -26 1.41421 3.58579
    endloop
  endfacet
  facet normal -1 0 0
    outer loop
      vertex -26 20 -13
      vertex -26 0.517637 3.06815
      vertex -26 1 3.26795
    endloop
  endfacet
  facet normal -1 0 0
    outer loop
      vertex -26 20 -13
      vertex -26 0 3
      vertex -26 0.517637 3.06815
    endloop
  endfacet
  facet normal -1 0 0
    outer loop
      vertex -26 -20 -13
      vertex -26 0 3
      vertex -26 20 -13
    endloop
  endfacet
  facet normal -1 -0 0
    outer loop
      vertex -26 0 3
      vertex -26 -20 -13
      vertex -26 -0.517637 3.06815
    endloop
  endfacet
  facet normal -1 -0 0
    outer loop
      vertex -26 -0.517637 3.06815
      vertex -26 -20 -13
      vertex -26 -1 3.26795
    endloop
  endfacet
  facet normal -1 0 0
    outer loop
      vertex -26 -20 13
      vertex -26 -1.93185 4.48236
      vertex -26 -20 -13
    endloop
  endfacet
  facet normal -1 -0 0
    outer loop
      vertex -26 -1.73205 4
      vertex -26 -20 -13
      vertex -26 -1.93185 4.48236
    endloop
  endfacet
  facet normal -1 -0 0
    outer loop
      vertex -26 -1.41421 3.58579
      vertex -26 -20 -13
      vertex -26 -1.73205 4
    endloop
  endfacet
  facet normal -1 -0 0
    outer loop
      vertex -26 -1 3.26795
      vertex -26 -20 -13
      vertex -26 -1.41421 3.58579
    endloop
  endfacet
  facet normal -1 0 0
    outer loop
      vertex -26 1.93185 5.51764
      vertex -26 20 13
      vertex -26 2 5
    endloop
  endfacet
  facet normal -1 0 0
    outer loop
      vertex -26 1.73205 6
      vertex -26 20 13
      vertex -26 1.93185 5.51764
    endloop
  endfacet
  facet normal -1 0 0
    outer loop
      vertex -26 1.41421 6.41421
      vertex -26 20 13
      vertex -26 1.73205 6
    endloop
  endfacet
  facet normal -1 0 0
    outer loop
      vertex -26 1 6.73205
      vertex -26 20 13
      vertex -26 1.41421 6.41421
    endloop
  endfacet
  facet normal -1 0 0
    outer loop
      vertex -26 0.517637 6.93185
      vertex -26 20 13
      vertex -26 1 6.73205
    endloop
  endfacet
  facet normal -1 0 0
    outer loop
      vertex -26 0 7
      vertex -26 20 13
      vertex -26 0.517637 6.93185
    endloop
  endfacet
  facet normal -1 0 0
    outer loop
      vertex -26 -20 13
      vertex -26 0 7
      vertex -26 -0.517637 6.93185
    endloop
  endfacet
  facet normal -1 0 0
    outer loop
      vertex -26 -1.93185 4.48236
      vertex -26 -20 13
      vertex -26 -2 5
    endloop
  endfacet
  facet normal -1 0 0
    outer loop
      vertex -26 -2 5
      vertex -26 -20 13
      vertex -26 -1.93185 5.51764
    endloop
  endfacet
  facet normal -1 0 0
    outer loop
      vertex -26 -1.93185 5.51764
      vertex -26 -20 13
      vertex -26 -1.73205 6
    endloop
  endfacet
  facet normal -1 0 0
    outer loop
      vertex -26 0 7
      vertex -26 -20 13
      vertex -26 20 13
    endloop
  endfacet
  facet normal -1 0 0
    outer loop
      vertex -26 -1 6.73205
      vertex -26 -20 13
      vertex -26 -0.517637 6.93185
    endloop
  endfacet
  facet normal -1 0 0
    outer loop
      vertex -26 -1.41421 6.41421
      vertex -26 -20 13
      vertex -26 -1 6.73205
    endloop
  endfacet
  facet normal -1 0 0
    outer loop
      vertex -26 -1.73205 6
      vertex -26 -20 13
      vertex -26 -1.41421 6.41421
    endloop
  endfacet
  facet normal 0 1 -0
    outer loop
      vertex 26 20 -13
      vertex -26 20 13
      vertex 26 20 13
    endloop
  endfacet
  facet normal 0 1 0
    outer loop
      vertex -26 20 13
      vertex 26 20 -13
      vertex -26 20 -13
    endloop
  endfacet
  facet normal 0 -1 0
    outer loop
      vertex -26 -20 -13
      vertex 26 -20 13
      vertex -26 -20 13
    endloop
  endfacet
  facet normal 0 -1 -0
    outer loop
      vertex 26 -20 13
      vertex -26 -20 -13
      vertex 26 -20 -13
    endloop
  endfacet
  facet normal -1 0 0
    outer loop
      vertex 23.8 6 2
      vertex 23.8 17.8 -10.8
      vertex 23.8 6 -6
    endloop
  endfacet
  facet normal -1 0 0
    outer loop
      vertex 23.8 17.8 -10.8
      vertex 23.8 -6 -6
      vertex 23.8 6 -6
    endloop
  endfacet
  facet normal -1 -0 0
    outer loop
      vertex 23.8 -6 -6
      vertex 23.8 -17.8 -10.8
      vertex 23.8 -6 2
    endloop
  endfacet
  facet normal -1 0 0
    outer loop
      vertex 23.8 -17.8 -10.8
      vertex 23.8 -6 -6
      vertex 23.8 17.8 -10.8
    endloop
  endfacet
  facet normal -1 0 0
    outer loop
      vertex 23.8 17.8 -10.8
      vertex 23.8 6 2
      vertex 23.8 17.8 13
    endloop
  endfacet
  facet normal -1 0 0
    outer loop
      vertex 23.8 -6 2
      vertex 23.8 17.8 13
      vertex 23.8 6 2
    endloop
  endfacet
  facet normal -1 0 0
    outer loop
      vertex 23.8 -6 2
      vertex 23.8 -17.8 13
      vertex 23.8 17.8 13
    endloop
  endfacet
  facet normal -1 0 0
    outer loop
      vertex 23.8 -17.8 13
      vertex 23.8 -6 2
      vertex 23.8 -17.8 -10.8
    endloop
  endfacet
  facet normal 0 0 1
    outer loop
      vertex 11.9775 10.5305 -10.8
      vertex -11.9775 10.5305 -10.8
      vertex 11.9775 -10.5305 -10.8
    endloop
  endfacet
  facet normal 0 0 1
    outer loop
      vertex 11.9775 -10.5305 -10.8
      vertex -11.6224 -11.2275 -10.8
      vertex -11.5 -12 -10.8
    endloop
  endfacet
  facet normal 0 0 1
    outer loop
      vertex -11.9775 -10.5305 -10.8
      vertex 11.9775 -10.5305 -10.8
      vertex -11.9775 10.5305 -10.8
    endloop
  endfacet
  facet normal 0 0 1
    outer loop
      vertex 11.9775 -10.5305 -10.8
      vertex -11.9775 -10.5305 -10.8
      vertex -11.6224 -11.2275 -10.8
    endloop
  endfacet
  facet normal -0 0 1
    outer loop
      vertex -12.5305 9.97746 -10.8
      vertex -11.9775 -10.5305 -10.8
      vertex -11.9775 10.5305 -10.8
    endloop
  endfacet
  facet normal 0 0 1
    outer loop
      vertex -12.5305 9.97746 -10.8
      vertex -12.5305 -9.97746 -10.8
      vertex -11.9775 -10.5305 -10.8
    endloop
  endfacet
  facet normal -0 0 1
    outer loop
      vertex -13.2275 9.62236 -10.8
      vertex -12.5305 -9.97746 -10.8
      vertex -12.5305 9.97746 -10.8
    endloop
  endfacet
  facet normal 0 0 1
    outer loop
      vertex -13.2275 9.62236 -10.8
      vertex -13.2275 -9.62236 -10.8
      vertex -12.5305 -9.97746 -10.8
    endloop
  endfacet
  facet normal -0 0 1
    outer loop
      vertex -14 9.5 -10.8
      vertex -13.2275 -9.62236 -10.8
      vertex -13.2275 9.62236 -10.8
    endloop
  endfacet
  facet normal 0 0 1
    outer loop
      vertex -14 9.5 -10.8
      vertex -14 -9.5 -10.8
      vertex -13.2275 -9.62236 -10.8
    endloop
  endfacet
  facet normal 0 0 1
    outer loop
      vertex -14.7725 9.62236 -10.8
      vertex -14 -9.5 -10.8
      vertex -14 9.5 -10.8
    endloop
  endfacet
  facet normal 0 0 1
    outer loop
      vertex -14.7725 9.62236 -10.8
      vertex -14.7725 -9.62236 -10.8
      vertex -14 -9.5 -10.8
    endloop
  endfacet
  facet normal 0 0 1
    outer loop
      vertex -15.4695 9.97746 -10.8
      vertex -14.7725 -9.62236 -10.8
      vertex -14.7725 9.62236 -10.8
    endloop
  endfacet
  facet normal 0 0 1
    outer loop
      vertex -15.4695 9.97746 -10.8
      vertex -15.4695 -9.97746 -10.8
      vertex -14.7725 -9.62236 -10.8
    endloop
  endfacet
  facet normal 0 0 1
    outer loop
      vertex -16.0225 10.5305 -10.8
      vertex -15.4695 -9.97746 -10.8
      vertex -15.4695 9.97746 -10.8
    endloop
  endfacet
  facet normal 0 0 1
    outer loop
      vertex -16.0225 10.5305 -10.8
      vertex -16.0225 -10.5305 -10.8
      vertex -15.4695 -9.97746 -10.8
    endloop
  endfacet
  facet normal 0 0 1
    outer loop
      vertex -23.8 17.8 -10.8
      vertex -16.0225 10.5305 -10.8
      vertex -16.3776 11.2275 -10.8
    endloop
  endfacet
  facet normal 0 0 1
    outer loop
      vertex -16.0225 10.5305 -10.8
      vertex -23.8 17.8 -10.8
      vertex -16.0225 -10.5305 -10.8
    endloop
  endfacet
  facet normal 0 0 1
    outer loop
      vertex -23.8 17.8 -10.8
      vertex -16.3776 11.2275 -10.8
      vertex -16.5 12 -10.8
    endloop
  endfacet
  facet normal 0 0 1
    outer loop
      vertex -23.8 -17.8 -10.8
      vertex -16.0225 -10.5305 -10.8
      vertex -23.8 17.8 -10.8
    endloop
  endfacet
  facet normal 0 0 1
    outer loop
      vertex 23.8 17.8 -10.8
      vertex 16.0225 10.5305 -10.8
      vertex 23.8 -17.8 -10.8
    endloop
  endfacet
  facet normal 0 0 1
    outer loop
      vertex 23.8 -17.8 -10.8
      vertex 16.3776 -11.2275 -10.8
      vertex 16.5 -12 -10.8
    endloop
  endfacet
  facet normal -0 0 1
    outer loop
      vertex 16.0225 -10.5305 -10.8
      vertex 23.8 -17.8 -10.8
      vertex 16.0225 10.5305 -10.8
    endloop
  endfacet
  facet normal 0 0 1
    outer loop
      vertex 23.8 -17.8 -10.8
      vertex 16.0225 -10.5305 -10.8
      vertex 16.3776 -11.2275 -10.8
    endloop
  endfacet
  facet normal -0 0 1
    outer loop
      vertex 15.4695 9.97746 -10.8
      vertex 16.0225 -10.5305 -10.8
      vertex 16.0225 10.5305 -10.8
    endloop
  endfacet
  facet normal 0 0 1
    outer loop
      vertex 15.4695 9.97746 -10.8
      vertex 15.4695 -9.97746 -10.8
      vertex 16.0225 -10.5305 -10.8
    endloop
  endfacet
  facet normal -0 0 1
    outer loop
      vertex 14.7725 9.62236 -10.8
      vertex 15.4695 -9.97746 -10.8
      vertex 15.4695 9.97746 -10.8
    endloop
  endfacet
  facet normal 0 0 1
    outer loop
      vertex 14.7725 9.62236 -10.8
      vertex 14.7725 -9.62236 -10.8
      vertex 15.4695 -9.97746 -10.8
    endloop
  endfacet
  facet normal -0 0 1
    outer loop
      vertex 14 9.5 -10.8
      vertex 14.7725 -9.62236 -10.8
      vertex 14.7725 9.62236 -10.8
    endloop
  endfacet
  facet normal 0 0 1
    outer loop
      vertex 14 9.5 -10.8
      vertex 14 -9.5 -10.8
      vertex 14.7725 -9.62236 -10.8
    endloop
  endfacet
  facet normal 0 0 1
    outer loop
      vertex 13.2275 9.62236 -10.8
      vertex 14 -9.5 -10.8
      vertex 14 9.5 -10.8
    endloop
  endfacet
  facet normal 0 0 1
    outer loop
      vertex 13.2275 9.62236 -10.8
      vertex 13.2275 -9.62236 -10.8
      vertex 14 -9.5 -10.8
    endloop
  endfacet
  facet normal 0 0 1
    outer loop
      vertex 12.5305 9.97746 -10.8
      vertex 13.2275 -9.62236 -10.8
      vertex 13.2275 9.62236 -10.8
    endloop
  endfacet
  facet normal 0 0 1
    outer loop
      vertex 12.5305 9.97746 -10.8
      vertex 12.5305 -9.97746 -10.8
      vertex 13.2275 -9.62236 -10.8
    endloop
  endfacet
  facet normal 0 0 1
    outer loop
      vertex 11.9775 10.5305 -10.8
      vertex 12.5305 -9.97746 -10.8
      vertex 12.5305 9.97746 -10.8
    endloop
  endfacet
  facet normal 0 0 1
    outer loop
      vertex 11.9775 10.5305 -10.8
      vertex 11.9775 -10.5305 -10.8
      vertex 12.5305 -9.97746 -10.8
    endloop
  endfacet
  facet normal 0 0 1
    outer loop
      vertex -11.6224 11.2275 -10.8
      vertex 11.6224 11.2275 -10.8
      vertex -11.5 12 -10.8
    endloop
  endfacet
  facet normal 0 0 1
    outer loop
      vertex 11.6224 11.2275 -10.8
      vertex -11.6224 11.2275 -10.8
      vertex 11.9775 10.5305 -10.8
    endloop
  endfacet
  facet normal -0 0 1
    outer loop
      vertex -11.5 12 -10.8
      vertex 11.6224 11.2275 -10.8
      vertex 11.5 12 -10.8
    endloop
  endfacet
  facet normal 0 0 1
    outer loop
      vertex -11.9775 10.5305 -10.8
      vertex 11.9775 10.5305 -10.8
      vertex -11.6224 11.2275 -10.8
    endloop
  endfacet
  facet normal 0 0 1
    outer loop
      vertex 16.3776 11.2275 -10.8
      vertex 23.8 17.8 -10.8
      vertex 16.5 12 -10.8
    endloop
  endfacet
  facet normal 0 0 1
    outer loop
      vertex 23.8 17.8 -10.8
      vertex 16.3776 12.7725 -10.8
      vertex 16.5 12 -10.8
    endloop
  endfacet
  facet normal 0 0 1
    outer loop
      vertex 23.8 17.8 -10.8
      vertex 16.0225 13.4695 -10.8
      vertex 16.3776 12.7725 -10.8
    endloop
  endfacet
  facet normal 0 0 1
    outer loop
      vertex 23.8 17.8 -10.8
      vertex 15.4695 14.0225 -10.8
      vertex 16.0225 13.4695 -10.8
    endloop
  endfacet
  facet normal 0 0 1
    outer loop
      vertex 23.8 17.8 -10.8
      vertex 14.7725 14.3776 -10.8
      vertex 15.4695 14.0225 -10.8
    endloop
  endfacet
  facet normal 0 0 1
    outer loop
      vertex 23.8 17.8 -10.8
      vertex 14 14.5 -10.8
      vertex 14.7725 14.3776 -10.8
    endloop
  endfacet
  facet normal 0 0 1
    outer loop
      vertex 23.8 17.8 -10.8
      vertex 13.2275 14.3776 -10.8
      vertex 14 14.5 -10.8
    endloop
  endfacet
  facet normal 0 0 1
    outer loop
      vertex 11.9775 -10.5305 -10.8
      vertex -11.5 -12 -10.8
      vertex 11.6224 -11.2275 -10.8
    endloop
  endfacet
  facet normal 0 0 1
    outer loop
      vertex 11.6224 12.7725 -10.8
      vertex -11.5 12 -10.8
      vertex 11.5 12 -10.8
    endloop
  endfacet
  facet normal 0 0 1
    outer loop
      vertex -11.6224 12.7725 -10.8
      vertex 11.6224 12.7725 -10.8
      vertex 11.9775 13.4695 -10.8
    endloop
  endfacet
  facet normal 0 0 1
    outer loop
      vertex -11.9775 13.4695 -10.8
      vertex 11.9775 13.4695 -10.8
      vertex 12.5305 14.0225 -10.8
    endloop
  endfacet
  facet normal 0 0 1
    outer loop
      vertex -12.5305 14.0225 -10.8
      vertex 12.5305 14.0225 -10.8
      vertex 13.2275 14.3776 -10.8
    endloop
  endfacet
  facet normal 0 0 1
    outer loop
      vertex -13.2275 14.3776 -10.8
      vertex 13.2275 14.3776 -10.8
      vertex 23.8 17.8 -10.8
    endloop
  endfacet
  facet normal 0 0 1
    outer loop
      vertex 11.6224 12.7725 -10.8
      vertex -11.6224 12.7725 -10.8
      vertex -11.5 12 -10.8
    endloop
  endfacet
  facet normal 0 0 1
    outer loop
      vertex 11.9775 13.4695 -10.8
      vertex -11.9775 13.4695 -10.8
      vertex -11.6224 12.7725 -10.8
    endloop
  endfacet
  facet normal 0 0 1
    outer loop
      vertex 12.5305 14.0225 -10.8
      vertex -12.5305 14.0225 -10.8
      vertex -11.9775 13.4695 -10.8
    endloop
  endfacet
  facet normal 0 0 1
    outer loop
      vertex 13.2275 14.3776 -10.8
      vertex -13.2275 14.3776 -10.8
      vertex -12.5305 14.0225 -10.8
    endloop
  endfacet
  facet normal -0 0 1
    outer loop
      vertex -23.8 17.8 -10.8
      vertex -13.2275 14.3776 -10.8
      vertex 23.8 17.8 -10.8
    endloop
  endfacet
  facet normal 0 0 1
    outer loop
      vertex -16.0225 -10.5305 -10.8
      vertex -23.8 -17.8 -10.8
      vertex -16.3776 -11.2275 -10.8
    endloop
  endfacet
  facet normal 0 0 1
    outer loop
      vertex -16.3776 12.7725 -10.8
      vertex -23.8 17.8 -10.8
      vertex -16.5 12 -10.8
    endloop
  endfacet
  facet normal 0 0 1
    outer loop
      vertex -16.0225 13.4695 -10.8
      vertex -23.8 17.8 -10.8
      vertex -16.3776 12.7725 -10.8
    endloop
  endfacet
  facet normal 0 0 1
    outer loop
      vertex -15.4695 14.0225 -10.8
      vertex -23.8 17.8 -10.8
      vertex -16.0225 13.4695 -10.8
    endloop
  endfacet
  facet normal 0 0 1
    outer loop
      vertex -14.7725 14.3776 -10.8
      vertex -23.8 17.8 -10.8
      vertex -15.4695 14.0225 -10.8
    endloop
  endfacet
  facet normal 0 0 1
    outer loop
      vertex -14 14.5 -10.8
      vertex -23.8 17.8 -10.8
      vertex -14.7725 14.3776 -10.8
    endloop
  endfacet
  facet normal 0 0 1
    outer loop
      vertex -13.2275 14.3776 -10.8
      vertex -23.8 17.8 -10.8
      vertex -14 14.5 -10.8
    endloop
  endfacet
  facet normal 0 0 1
    outer loop
      vertex 16.0225 10.5305 -10.8
      vertex 23.8 17.8 -10.8
      vertex 16.3776 11.2275 -10.8
    endloop
  endfacet
  facet normal -0 0 1
    outer loop
      vertex 16.3776 -12.7725 -10.8
      vertex 23.8 -17.8 -10.8
      vertex 16.5 -12 -10.8
    endloop
  endfacet
  facet normal -0 0 1
    outer loop
      vertex 16.0225 -13.4695 -10.8
      vertex 23.8 -17.8 -10.8
      vertex 16.3776 -12.7725 -10.8
    endloop
  endfacet
  facet normal -0 0 1
    outer loop
      vertex 15.4695 -14.0225 -10.8
      vertex 23.8 -17.8 -10.8
      vertex 16.0225 -13.4695 -10.8
    endloop
  endfacet
  facet normal -0 0 1
    outer loop
      vertex 14.7725 -14.3776 -10.8
      vertex 23.8 -17.8 -10.8
      vertex 15.4695 -14.0225 -10.8
    endloop
  endfacet
  facet normal -0 0 1
    outer loop
      vertex 14 -14.5 -10.8
      vertex 23.8 -17.8 -10.8
      vertex 14.7725 -14.3776 -10.8
    endloop
  endfacet
  facet normal 0 0 1
    outer loop
      vertex 13.2275 -14.3776 -10.8
      vertex 23.8 -17.8 -10.8
      vertex 14 -14.5 -10.8
    endloop
  endfacet
  facet normal 0 0 1
    outer loop
      vertex 11.6224 -11.2275 -10.8
      vertex -11.5 -12 -10.8
      vertex 11.5 -12 -10.8
    endloop
  endfacet
  facet normal 0 0 1
    outer loop
      vertex 11.5 -12 -10.8
      vertex -11.5 -12 -10.8
      vertex 11.6224 -12.7725 -10.8
    endloop
  endfacet
  facet normal 0 0 1
    outer loop
      vertex -11.6224 -12.7725 -10.8
      vertex 11.6224 -12.7725 -10.8
      vertex -11.5 -12 -10.8
    endloop
  endfacet
  facet normal 0 0 1
    outer loop
      vertex 11.6224 -12.7725 -10.8
      vertex -11.6224 -12.7725 -10.8
      vertex 11.9775 -13.4695 -10.8
    endloop
  endfacet
  facet normal 0 0 1
    outer loop
      vertex -11.9775 -13.4695 -10.8
      vertex 11.9775 -13.4695 -10.8
      vertex -11.6224 -12.7725 -10.8
    endloop
  endfacet
  facet normal 0 0 1
    outer loop
      vertex 11.9775 -13.4695 -10.8
      vertex -11.9775 -13.4695 -10.8
      vertex 12.5305 -14.0225 -10.8
    endloop
  endfacet
  facet normal 0 0 1
    outer loop
      vertex -12.5305 -14.0225 -10.8
      vertex 12.5305 -14.0225 -10.8
      vertex -11.9775 -13.4695 -10.8
    endloop
  endfacet
  facet normal 0 0 1
    outer loop
      vertex 12.5305 -14.0225 -10.8
      vertex -12.5305 -14.0225 -10.8
      vertex 13.2275 -14.3776 -10.8
    endloop
  endfacet
  facet normal 0 0 1
    outer loop
      vertex -13.2275 -14.3776 -10.8
      vertex 13.2275 -14.3776 -10.8
      vertex -12.5305 -14.0225 -10.8
    endloop
  endfacet
  facet normal 0 0 1
    outer loop
      vertex 13.2275 -14.3776 -10.8
      vertex -13.2275 -14.3776 -10.8
      vertex 23.8 -17.8 -10.8
    endloop
  endfacet
  facet normal 0 0 1
    outer loop
      vertex -23.8 -17.8 -10.8
      vertex -13.2275 -14.3776 -10.8
      vertex -14 -14.5 -10.8
    endloop
  endfacet
  facet normal 0 0 1
    outer loop
      vertex -16.3776 -11.2275 -10.8
      vertex -23.8 -17.8 -10.8
      vertex -16.5 -12 -10.8
    endloop
  endfacet
  facet normal 0 0 1
    outer loop
      vertex -13.2275 -14.3776 -10.8
      vertex -23.8 -17.8 -10.8
      vertex 23.8 -17.8 -10.8
    endloop
  endfacet
  facet normal 0 0 1
    outer loop
      vertex -14.7725 -14.3776 -10.8
      vertex -23.8 -17.8 -10.8
      vertex -14 -14.5 -10.8
    endloop
  endfacet
  facet normal 0 0 1
    outer loop
      vertex -15.4695 -14.0225 -10.8
      vertex -23.8 -17.8 -10.8
      vertex -14.7725 -14.3776 -10.8
    endloop
  endfacet
  facet normal 0 0 1
    outer loop
      vertex -16.0225 -13.4695 -10.8
      vertex -23.8 -17.8 -10.8
      vertex -15.4695 -14.0225 -10.8
    endloop
  endfacet
  facet normal 0 0 1
    outer loop
      vertex -16.3776 -12.7725 -10.8
      vertex -23.8 -17.8 -10.8
      vertex -16.0225 -13.4695 -10.8
    endloop
  endfacet
  facet normal 0 0 1
    outer loop
      vertex -16.5 -12 -10.8
      vertex -23.8 -17.8 -10.8
      vertex -16.3776 -12.7725 -10.8
    endloop
  endfacet
  facet normal 1 0 0
    outer loop
      vertex -23.8 1.93185 4.48236
      vertex -23.8 17.8 13
      vertex -23.8 2 5
    endloop
  endfacet
  facet normal 1 0 0
    outer loop
      vertex -23.8 17.8 13
      vertex -23.8 1.93185 5.51764
      vertex -23.8 2 5
    endloop
  endfacet
  facet normal 1 0 0
    outer loop
      vertex -23.8 17.8 13
      vertex -23.8 1.73205 6
      vertex -23.8 1.93185 5.51764
    endloop
  endfacet
  facet normal 1 0 0
    outer loop
      vertex -23.8 17.8 13
      vertex -23.8 1.41421 6.41421
      vertex -23.8 1.73205 6
    endloop
  endfacet
  facet normal 1 0 0
    outer loop
      vertex -23.8 17.8 13
      vertex -23.8 1 6.73205
      vertex -23.8 1.41421 6.41421
    endloop
  endfacet
  facet normal 1 0 0
    outer loop
      vertex -23.8 17.8 13
      vertex -23.8 0.517637 6.93185
      vertex -23.8 1 6.73205
    endloop
  endfacet
  facet normal 1 0 0
    outer loop
      vertex -23.8 17.8 13
      vertex -23.8 0 7
      vertex -23.8 0.517637 6.93185
    endloop
  endfacet
  facet normal 1 -0 0
    outer loop
      vertex -23.8 -17.8 13
      vertex -23.8 0 7
      vertex -23.8 17.8 13
    endloop
  endfacet
  facet normal 1 0 0
    outer loop
      vertex -23.8 -1.93185 5.51764
      vertex -23.8 -17.8 13
      vertex -23.8 -2 5
    endloop
  endfacet
  facet normal 1 0 0
    outer loop
      vertex -23.8 -1.73205 6
      vertex -23.8 -17.8 13
      vertex -23.8 -1.93185 5.51764
    endloop
  endfacet
  facet normal 1 0 0
    outer loop
      vertex -23.8 -1.41421 6.41421
      vertex -23.8 -17.8 13
      vertex -23.8 -1.73205 6
    endloop
  endfacet
  facet normal 1 0 0
    outer loop
      vertex -23.8 -1 6.73205
      vertex -23.8 -17.8 13
      vertex -23.8 -1.41421 6.41421
    endloop
  endfacet
  facet normal 1 0 0
    outer loop
      vertex -23.8 -0.517637 6.93185
      vertex -23.8 -17.8 13
      vertex -23.8 -1 6.73205
    endloop
  endfacet
  facet normal 1 0 0
    outer loop
      vertex -23.8 0 7
      vertex -23.8 -17.8 13
      vertex -23.8 -0.517637 6.93185
    endloop
  endfacet
  facet normal 1 0 0
    outer loop
      vertex -23.8 17.8 13
      vertex -23.8 1.93185 4.48236
      vertex -23.8 17.8 -10.8
    endloop
  endfacet
  facet normal 1 -0 0
    outer loop
      vertex -23.8 1.73205 4
      vertex -23.8 17.8 -10.8
      vertex -23.8 1.93185 4.48236
    endloop
  endfacet
  facet normal 1 -0 0
    outer loop
      vertex -23.8 1.41421 3.58579
      vertex -23.8 17.8 -10.8
      vertex -23.8 1.73205 4
    endloop
  endfacet
  facet normal 1 -0 0
    outer loop
      vertex -23.8 1 3.26795
      vertex -23.8 17.8 -10.8
      vertex -23.8 1.41421 3.58579
    endloop
  endfacet
  facet normal 1 -0 0
    outer loop
      vertex -23.8 0.517637 3.06815
      vertex -23.8 17.8 -10.8
      vertex -23.8 1 3.26795
    endloop
  endfacet
  facet normal 1 -0 0
    outer loop
      vertex -23.8 0 3
      vertex -23.8 17.8 -10.8
      vertex -23.8 0.517637 3.06815
    endloop
  endfacet
  facet normal 1 0 0
    outer loop
      vertex -23.8 -17.8 -10.8
      vertex -23.8 0 3
      vertex -23.8 -0.517637 3.06815
    endloop
  endfacet
  facet normal 1 0 0
    outer loop
      vertex -23.8 -17.8 -10.8
      vertex -23.8 -0.517637 3.06815
      vertex -23.8 -1 3.26795
    endloop
  endfacet
  facet normal 1 0 0
    outer loop
      vertex -23.8 -17.8 13
      vertex -23.8 -1.93185 4.48236
      vertex -23.8 -2 5
    endloop
  endfacet
  facet normal 1 0 0
    outer loop
      vertex -23.8 -17.8 -10.8
      vertex -23.8 -1.93185 4.48236
      vertex -23.8 -17.8 13
    endloop
  endfacet
  facet normal 1 0 0
    outer loop
      vertex -23.8 -1.93185 4.48236
      vertex -23.8 -17.8 -10.8
      vertex -23.8 -1.73205 4
    endloop
  endfacet
  facet normal 1 0 0
    outer loop
      vertex -23.8 -1.73205 4
      vertex -23.8 -17.8 -10.8
      vertex -23.8 -1.41421 3.58579
    endloop
  endfacet
  facet normal 1 0 0
    outer loop
      vertex -23.8 -1.41421 3.58579
      vertex -23.8 -17.8 -10.8
      vertex -23.8 -1 3.26795
    endloop
  endfacet
  facet normal 1 0 0
    outer loop
      vertex -23.8 0 3
      vertex -23.8 -17.8 -10.8
      vertex -23.8 17.8 -10.8
    endloop
  endfacet
  facet normal 0 -1 0
    outer loop
      vertex -23.8 17.8 -10.8
      vertex 23.8 17.8 13
      vertex -23.8 17.8 13
    endloop
  endfacet
  facet normal 0 -1 -0
    outer loop
      vertex 23.8 17.8 13
      vertex -23.8 17.8 -10.8
      vertex 23.8 17.8 -10.8
    endloop
  endfacet
  facet normal 0 1 -0
    outer loop
      vertex 23.8 -17.8 -10.8
      vertex -23.8 -17.8 13
      vertex 23.8 -17.8 13
    endloop
  endfacet
  facet normal 0 1 0
    outer loop
      vertex -23.8 -17.8 13
      vertex 23.8 -17.8 -10.8
      vertex -23.8 -17.8 -10.8
    endloop
  endfacet
  facet normal 0 0 -1
    outer loop
      vertex 23.8 -6 2
      vertex 26 6 2
      vertex 26 -6 2
    endloop
  endfacet
  facet normal -0 0 -1
    outer loop
      vertex 26 6 2
      vertex 23.8 -6 2
      vertex 23.8 6 2
    endloop
  endfacet
  facet normal -0 0 1
    outer loop
      vertex 23.8 6 -6
      vertex 26 -6 -6
      vertex 26 6 -6
    endloop
  endfacet
  facet normal 0 0 1
    outer loop
      vertex 26 -6 -6
      vertex 23.8 6 -6
      vertex 23.8 -6 -6
    endloop
  endfacet
  facet normal 0 -1 0
    outer loop
      vertex 23.8 6 -6
      vertex 26 6 2
      vertex 23.8 6 2
    endloop
  endfacet
  facet normal 0 -1 -0
    outer loop
      vertex 26 6 2
      vertex 23.8 6 -6
      vertex 26 6 -6
    endloop
  endfacet
  facet normal 0 1 -0
    outer loop
      vertex 26 -6 -6
      vertex 23.8 -6 2
      vertex 26 -6 2
    endloop
  endfacet
  facet normal 0 1 0
    outer loop
      vertex 23.8 -6 2
      vertex 26 -6 -6
      vertex 23.8 -6 -6
    endloop
  endfacet
  facet normal 0 -0.608768 0.793348
    outer loop
      vertex -26 1.41421 3.58579
      vertex -23.8 1 3.26795
      vertex -23.8 1.41421 3.58579
    endloop
  endfacet
  facet normal 0 -0.608768 0.793348
    outer loop
      vertex -23.8 1 3.26795
      vertex -26 1.41421 3.58579
      vertex -26 1 3.26795
    endloop
  endfacet
  facet normal -0 0.13053 0.991444
    outer loop
      vertex -26 0 3
      vertex -23.8 -0.517637 3.06815
      vertex -23.8 0 3
    endloop
  endfacet
  facet normal 0 0.13053 0.991444
    outer loop
      vertex -23.8 -0.517637 3.06815
      vertex -26 0 3
      vertex -26 -0.517637 3.06815
    endloop
  endfacet
  facet normal 0 -0.92388 -0.382683
    outer loop
      vertex -26 1.93185 5.51764
      vertex -23.8 1.73205 6
      vertex -26 1.73205 6
    endloop
  endfacet
  facet normal 0 -0.92388 -0.382683
    outer loop
      vertex -23.8 1.73205 6
      vertex -26 1.93185 5.51764
      vertex -23.8 1.93185 5.51764
    endloop
  endfacet
  facet normal 0 0.382681 -0.92388
    outer loop
      vertex -26 -1 6.73205
      vertex -23.8 -0.517637 6.93185
      vertex -23.8 -1 6.73205
    endloop
  endfacet
  facet normal 0 0.382681 -0.92388
    outer loop
      vertex -23.8 -0.517637 6.93185
      vertex -26 -1 6.73205
      vertex -26 -0.517637 6.93185
    endloop
  endfacet
  facet normal 0 0.793348 0.608768
    outer loop
      vertex -23.8 -1.41421 3.58579
      vertex -26 -1.73205 4
      vertex -23.8 -1.73205 4
    endloop
  endfacet
  facet normal 0 0.793348 0.608768
    outer loop
      vertex -26 -1.73205 4
      vertex -23.8 -1.41421 3.58579
      vertex -26 -1.41421 3.58579
    endloop
  endfacet
  facet normal 0 -0.92388 0.382683
    outer loop
      vertex -26 1.73205 4
      vertex -23.8 1.93185 4.48236
      vertex -26 1.93185 4.48236
    endloop
  endfacet
  facet normal 0 -0.92388 0.382683
    outer loop
      vertex -23.8 1.93185 4.48236
      vertex -26 1.73205 4
      vertex -23.8 1.73205 4
    endloop
  endfacet
  facet normal 0 -0.13053 0.991444
    outer loop
      vertex -26 0.517637 3.06815
      vertex -23.8 0 3
      vertex -23.8 0.517637 3.06815
    endloop
  endfacet
  facet normal 0 -0.13053 0.991444
    outer loop
      vertex -23.8 0 3
      vertex -26 0.517637 3.06815
      vertex -26 0 3
    endloop
  endfacet
  facet normal 0 0.991445 -0.130529
    outer loop
      vertex -23.8 -2 5
      vertex -26 -1.93185 5.51764
      vertex -23.8 -1.93185 5.51764
    endloop
  endfacet
  facet normal 0 0.991445 -0.130529
    outer loop
      vertex -26 -1.93185 5.51764
      vertex -23.8 -2 5
      vertex -26 -2 5
    endloop
  endfacet
  facet normal 0 -0.382681 0.92388
    outer loop
      vertex -26 1 3.26795
      vertex -23.8 0.517637 3.06815
      vertex -23.8 1 3.26795
    endloop
  endfacet
  facet normal 0 -0.382681 0.92388
    outer loop
      vertex -23.8 0.517637 3.06815
      vertex -26 1 3.26795
      vertex -26 0.517637 3.06815
    endloop
  endfacet
  facet normal 0 0.991445 0.130529
    outer loop
      vertex -23.8 -1.93185 4.48236
      vertex -26 -2 5
      vertex -23.8 -2 5
    endloop
  endfacet
  facet normal 0 0.991445 0.130529
    outer loop
      vertex -26 -2 5
      vertex -23.8 -1.93185 4.48236
      vertex -26 -1.93185 4.48236
    endloop
  endfacet
  facet normal 0 -0.608768 -0.793348
    outer loop
      vertex -26 1 6.73205
      vertex -23.8 1.41421 6.41421
      vertex -23.8 1 6.73205
    endloop
  endfacet
  facet normal -0 -0.608768 -0.793348
    outer loop
      vertex -23.8 1.41421 6.41421
      vertex -26 1 6.73205
      vertex -26 1.41421 6.41421
    endloop
  endfacet
  facet normal 0 -0.991445 -0.130529
    outer loop
      vertex -26 2 5
      vertex -23.8 1.93185 5.51764
      vertex -26 1.93185 5.51764
    endloop
  endfacet
  facet normal 0 -0.991445 -0.130529
    outer loop
      vertex -23.8 1.93185 5.51764
      vertex -26 2 5
      vertex -23.8 2 5
    endloop
  endfacet
  facet normal 0 -0.991445 0.130529
    outer loop
      vertex -26 1.93185 4.48236
      vertex -23.8 2 5
      vertex -26 2 5
    endloop
  endfacet
  facet normal 0 -0.991445 0.130529
    outer loop
      vertex -23.8 2 5
      vertex -26 1.93185 4.48236
      vertex -23.8 1.93185 4.48236
    endloop
  endfacet
  facet normal 0 -0.382681 -0.92388
    outer loop
      vertex -26 0.517637 6.93185
      vertex -23.8 1 6.73205
      vertex -23.8 0.517637 6.93185
    endloop
  endfacet
  facet normal -0 -0.382681 -0.92388
    outer loop
      vertex -23.8 1 6.73205
      vertex -26 0.517637 6.93185
      vertex -26 1 6.73205
    endloop
  endfacet
  facet normal 0 -0.13053 -0.991444
    outer loop
      vertex -26 0 7
      vertex -23.8 0.517637 6.93185
      vertex -23.8 0 7
    endloop
  endfacet
  facet normal -0 -0.13053 -0.991444
    outer loop
      vertex -23.8 0.517637 6.93185
      vertex -26 0 7
      vertex -26 0.517637 6.93185
    endloop
  endfacet
  facet normal -0 0.608768 0.793348
    outer loop
      vertex -26 -1 3.26795
      vertex -23.8 -1.41421 3.58579
      vertex -23.8 -1 3.26795
    endloop
  endfacet
  facet normal 0 0.608768 0.793348
    outer loop
      vertex -23.8 -1.41421 3.58579
      vertex -26 -1 3.26795
      vertex -26 -1.41421 3.58579
    endloop
  endfacet
  facet normal -0 0.382681 0.92388
    outer loop
      vertex -26 -0.517637 3.06815
      vertex -23.8 -1 3.26795
      vertex -23.8 -0.517637 3.06815
    endloop
  endfacet
  facet normal 0 0.382681 0.92388
    outer loop
      vertex -23.8 -1 3.26795
      vertex -26 -0.517637 3.06815
      vertex -26 -1 3.26795
    endloop
  endfacet
  facet normal 0 -0.793348 -0.608768
    outer loop
      vertex -26 1.73205 6
      vertex -23.8 1.41421 6.41421
      vertex -26 1.41421 6.41421
    endloop
  endfacet
  facet normal 0 -0.793348 -0.608768
    outer loop
      vertex -23.8 1.41421 6.41421
      vertex -26 1.73205 6
      vertex -23.8 1.73205 6
    endloop
  endfacet
  facet normal 0 0.92388 0.382683
    outer loop
      vertex -23.8 -1.73205 4
      vertex -26 -1.93185 4.48236
      vertex -23.8 -1.93185 4.48236
    endloop
  endfacet
  facet normal 0 0.92388 0.382683
    outer loop
      vertex -26 -1.93185 4.48236
      vertex -23.8 -1.73205 4
      vertex -26 -1.73205 4
    endloop
  endfacet
  facet normal 0 -0.793348 0.608768
    outer loop
      vertex -26 1.41421 3.58579
      vertex -23.8 1.73205 4
      vertex -26 1.73205 4
    endloop
  endfacet
  facet normal 0 -0.793348 0.608768
    outer loop
      vertex -23.8 1.73205 4
      vertex -26 1.41421 3.58579
      vertex -23.8 1.41421 3.58579
    endloop
  endfacet
  facet normal 0 0.13053 -0.991444
    outer loop
      vertex -26 -0.517637 6.93185
      vertex -23.8 0 7
      vertex -23.8 -0.517637 6.93185
    endloop
  endfacet
  facet normal 0 0.13053 -0.991444
    outer loop
      vertex -23.8 0 7
      vertex -26 -0.517637 6.93185
      vertex -26 0 7
    endloop
  endfacet
  facet normal 0 0.608768 -0.793348
    outer loop
      vertex -26 -1.41421 6.41421
      vertex -23.8 -1 6.73205
      vertex -23.8 -1.41421 6.41421
    endloop
  endfacet
  facet normal 0 0.608768 -0.793348
    outer loop
      vertex -23.8 -1 6.73205
      vertex -26 -1.41421 6.41421
      vertex -26 -1 6.73205
    endloop
  endfacet
  facet normal 0 0.793348 -0.608768
    outer loop
      vertex -23.8 -1.73205 6
      vertex -26 -1.41421 6.41421
      vertex -23.8 -1.41421 6.41421
    endloop
  endfacet
  facet normal 0 0.793348 -0.608768
    outer loop
      vertex -26 -1.41421 6.41421
      vertex -23.8 -1.73205 6
      vertex -26 -1.73205 6
    endloop
  endfacet
  facet normal 0 0.92388 -0.382683
    outer loop
      vertex -23.8 -1.93185 5.51764
      vertex -26 -1.73205 6
      vertex -23.8 -1.73205 6
    endloop
  endfacet
  facet normal 0 0.92388 -0.382683
    outer loop
      vertex -26 -1.73205 6
      vertex -23.8 -1.93185 5.51764
      vertex -26 -1.93185 5.51764
    endloop
  endfacet
  facet normal 0.156444 0.987687 -0
    outer loop
      vertex -13.2275 -9.62236 -10.8
      vertex -14 -9.5 -2.8
      vertex -13.2275 -9.62236 -2.8
    endloop
  endfacet
  facet normal 0.156444 0.987687 0
    outer loop
      vertex -14 -9.5 -2.8
      vertex -13.2275 -9.62236 -10.8
      vertex -14 -9.5 -10.8
    endloop
  endfacet
  facet normal 0.891027 0.453951 0
    outer loop
      vertex -11.6224 -11.2275 -2.8
      vertex -11.9775 -10.5305 -10.8
      vertex -11.9775 -10.5305 -2.8
    endloop
  endfacet
  facet normal 0.891027 0.453951 0
    outer loop
      vertex -11.9775 -10.5305 -10.8
      vertex -11.6224 -11.2275 -2.8
      vertex -11.6224 -11.2275 -10.8
    endloop
  endfacet
  facet normal 0.987679 0.156494 0
    outer loop
      vertex -11.5 -12 -2.8
      vertex -11.6224 -11.2275 -10.8
      vertex -11.6224 -11.2275 -2.8
    endloop
  endfacet
  facet normal 0.987679 0.156494 0
    outer loop
      vertex -11.6224 -11.2275 -10.8
      vertex -11.5 -12 -2.8
      vertex -11.5 -12 -10.8
    endloop
  endfacet
  facet normal 0.453951 -0.891027 0
    outer loop
      vertex -13.2275 -14.3776 -10.8
      vertex -12.5305 -14.0225 -2.8
      vertex -13.2275 -14.3776 -2.8
    endloop
  endfacet
  facet normal 0.453951 -0.891027 0
    outer loop
      vertex -12.5305 -14.0225 -2.8
      vertex -13.2275 -14.3776 -10.8
      vertex -12.5305 -14.0225 -10.8
    endloop
  endfacet
  facet normal -0.707132 0.707081 0
    outer loop
      vertex -16.0225 -10.5305 -10.8
      vertex -15.4695 -9.97746 -2.8
      vertex -15.4695 -9.97746 -10.8
    endloop
  endfacet
  facet normal -0.707132 0.707081 0
    outer loop
      vertex -15.4695 -9.97746 -2.8
      vertex -16.0225 -10.5305 -10.8
      vertex -16.0225 -10.5305 -2.8
    endloop
  endfacet
  facet normal 0.453951 0.891027 -0
    outer loop
      vertex -12.5305 -9.97746 -10.8
      vertex -13.2275 -9.62236 -2.8
      vertex -12.5305 -9.97746 -2.8
    endloop
  endfacet
  facet normal 0.453951 0.891027 0
    outer loop
      vertex -13.2275 -9.62236 -2.8
      vertex -12.5305 -9.97746 -10.8
      vertex -13.2275 -9.62236 -10.8
    endloop
  endfacet
  facet normal 0.891027 -0.453951 0
    outer loop
      vertex -11.9775 -13.4695 -2.8
      vertex -11.6224 -12.7725 -10.8
      vertex -11.6224 -12.7725 -2.8
    endloop
  endfacet
  facet normal 0.891027 -0.453951 0
    outer loop
      vertex -11.6224 -12.7725 -10.8
      vertex -11.9775 -13.4695 -2.8
      vertex -11.9775 -13.4695 -10.8
    endloop
  endfacet
  facet normal 0.156494 -0.987679 0
    outer loop
      vertex -14 -14.5 -10.8
      vertex -13.2275 -14.3776 -2.8
      vertex -14 -14.5 -2.8
    endloop
  endfacet
  facet normal 0.156494 -0.987679 0
    outer loop
      vertex -13.2275 -14.3776 -2.8
      vertex -14 -14.5 -10.8
      vertex -13.2275 -14.3776 -10.8
    endloop
  endfacet
  facet normal -0.453951 -0.891027 0
    outer loop
      vertex -15.4695 -14.0225 -10.8
      vertex -14.7725 -14.3776 -2.8
      vertex -15.4695 -14.0225 -2.8
    endloop
  endfacet
  facet normal -0.453951 -0.891027 -0
    outer loop
      vertex -14.7725 -14.3776 -2.8
      vertex -15.4695 -14.0225 -10.8
      vertex -14.7725 -14.3776 -10.8
    endloop
  endfacet
  facet normal 0.987679 -0.156494 0
    outer loop
      vertex -11.6224 -12.7725 -2.8
      vertex -11.5 -12 -10.8
      vertex -11.5 -12 -2.8
    endloop
  endfacet
  facet normal 0.987679 -0.156494 0
    outer loop
      vertex -11.5 -12 -10.8
      vertex -11.6224 -12.7725 -2.8
      vertex -11.6224 -12.7725 -10.8
    endloop
  endfacet
  facet normal -0.156444 0.987687 0
    outer loop
      vertex -14 -9.5 -10.8
      vertex -14.7725 -9.62236 -2.8
      vertex -14 -9.5 -2.8
    endloop
  endfacet
  facet normal -0.156444 0.987687 0
    outer loop
      vertex -14.7725 -9.62236 -2.8
      vertex -14 -9.5 -10.8
      vertex -14.7725 -9.62236 -10.8
    endloop
  endfacet
  facet normal -0.891027 -0.453951 0
    outer loop
      vertex -16.0225 -13.4695 -10.8
      vertex -16.3776 -12.7725 -2.8
      vertex -16.3776 -12.7725 -10.8
    endloop
  endfacet
  facet normal -0.891027 -0.453951 0
    outer loop
      vertex -16.3776 -12.7725 -2.8
      vertex -16.0225 -13.4695 -10.8
      vertex -16.0225 -13.4695 -2.8
    endloop
  endfacet
  facet normal -0.891027 0.453951 0
    outer loop
      vertex -16.3776 -11.2275 -10.8
      vertex -16.0225 -10.5305 -2.8
      vertex -16.0225 -10.5305 -10.8
    endloop
  endfacet
  facet normal -0.891027 0.453951 0
    outer loop
      vertex -16.0225 -10.5305 -2.8
      vertex -16.3776 -11.2275 -10.8
      vertex -16.3776 -11.2275 -2.8
    endloop
  endfacet
  facet normal -0.453951 0.891027 0
    outer loop
      vertex -14.7725 -9.62236 -10.8
      vertex -15.4695 -9.97746 -2.8
      vertex -14.7725 -9.62236 -2.8
    endloop
  endfacet
  facet normal -0.453951 0.891027 0
    outer loop
      vertex -15.4695 -9.97746 -2.8
      vertex -14.7725 -9.62236 -10.8
      vertex -15.4695 -9.97746 -10.8
    endloop
  endfacet
  facet normal -0.987679 0.156494 0
    outer loop
      vertex -16.5 -12 -10.8
      vertex -16.3776 -11.2275 -2.8
      vertex -16.3776 -11.2275 -10.8
    endloop
  endfacet
  facet normal -0.987679 0.156494 0
    outer loop
      vertex -16.3776 -11.2275 -2.8
      vertex -16.5 -12 -10.8
      vertex -16.5 -12 -2.8
    endloop
  endfacet
  facet normal 0.707132 0.707081 0
    outer loop
      vertex -11.9775 -10.5305 -2.8
      vertex -12.5305 -9.97746 -10.8
      vertex -12.5305 -9.97746 -2.8
    endloop
  endfacet
  facet normal 0.707132 0.707081 0
    outer loop
      vertex -12.5305 -9.97746 -10.8
      vertex -11.9775 -10.5305 -2.8
      vertex -11.9775 -10.5305 -10.8
    endloop
  endfacet
  facet normal -0.156494 -0.987679 0
    outer loop
      vertex -14.7725 -14.3776 -10.8
      vertex -14 -14.5 -2.8
      vertex -14.7725 -14.3776 -2.8
    endloop
  endfacet
  facet normal -0.156494 -0.987679 -0
    outer loop
      vertex -14 -14.5 -2.8
      vertex -14.7725 -14.3776 -10.8
      vertex -14 -14.5 -10.8
    endloop
  endfacet
  facet normal -0.987679 -0.156494 0
    outer loop
      vertex -16.3776 -12.7725 -10.8
      vertex -16.5 -12 -2.8
      vertex -16.5 -12 -10.8
    endloop
  endfacet
  facet normal -0.987679 -0.156494 0
    outer loop
      vertex -16.5 -12 -2.8
      vertex -16.3776 -12.7725 -10.8
      vertex -16.3776 -12.7725 -2.8
    endloop
  endfacet
  facet normal 0.707107 -0.707107 0
    outer loop
      vertex -12.5305 -14.0225 -2.8
      vertex -11.9775 -13.4695 -10.8
      vertex -11.9775 -13.4695 -2.8
    endloop
  endfacet
  facet normal 0.707107 -0.707107 0
    outer loop
      vertex -11.9775 -13.4695 -10.8
      vertex -12.5305 -14.0225 -2.8
      vertex -12.5305 -14.0225 -10.8
    endloop
  endfacet
  facet normal -0.707107 -0.707107 0
    outer loop
      vertex -15.4695 -14.0225 -10.8
      vertex -16.0225 -13.4695 -2.8
      vertex -16.0225 -13.4695 -10.8
    endloop
  endfacet
  facet normal -0.707107 -0.707107 0
    outer loop
      vertex -16.0225 -13.4695 -2.8
      vertex -15.4695 -14.0225 -10.8
      vertex -15.4695 -14.0225 -2.8
    endloop
  endfacet
  facet normal 0 0 1
    outer loop
      vertex -11.6224 -11.2275 -2.8
      vertex -11.6224 -12.7725 -2.8
      vertex -11.5 -12 -2.8
    endloop
  endfacet
  facet normal 0 0 1
    outer loop
      vertex -11.9775 -10.5305 -2.8
      vertex -11.6224 -12.7725 -2.8
      vertex -11.6224 -11.2275 -2.8
    endloop
  endfacet
  facet normal 0 0 1
    outer loop
      vertex -11.9775 -10.5305 -2.8
      vertex -11.9775 -13.4695 -2.8
      vertex -11.6224 -12.7725 -2.8
    endloop
  endfacet
  facet normal 0 0 1
    outer loop
      vertex -12.5305 -9.97746 -2.8
      vertex -11.9775 -13.4695 -2.8
      vertex -11.9775 -10.5305 -2.8
    endloop
  endfacet
  facet normal 0 0 1
    outer loop
      vertex -12.5305 -9.97746 -2.8
      vertex -12.5305 -14.0225 -2.8
      vertex -11.9775 -13.4695 -2.8
    endloop
  endfacet
  facet normal 0 0 1
    outer loop
      vertex -13.2275 -9.62236 -2.8
      vertex -12.5305 -14.0225 -2.8
      vertex -12.5305 -9.97746 -2.8
    endloop
  endfacet
  facet normal 0 0 1
    outer loop
      vertex -13.2275 -9.62236 -2.8
      vertex -13.2275 -14.3776 -2.8
      vertex -12.5305 -14.0225 -2.8
    endloop
  endfacet
  facet normal 0 0 1
    outer loop
      vertex -14 -9.5 -2.8
      vertex -13.2275 -14.3776 -2.8
      vertex -13.2275 -9.62236 -2.8
    endloop
  endfacet
  facet normal 0 0 1
    outer loop
      vertex -14 -9.5 -2.8
      vertex -14 -14.5 -2.8
      vertex -13.2275 -14.3776 -2.8
    endloop
  endfacet
  facet normal -0 0 1
    outer loop
      vertex -14.7725 -9.62236 -2.8
      vertex -14 -14.5 -2.8
      vertex -14 -9.5 -2.8
    endloop
  endfacet
  facet normal 0 0 1
    outer loop
      vertex -14.7725 -9.62236 -2.8
      vertex -14.7725 -14.3776 -2.8
      vertex -14 -14.5 -2.8
    endloop
  endfacet
  facet normal -0 0 1
    outer loop
      vertex -15.4695 -9.97746 -2.8
      vertex -14.7725 -14.3776 -2.8
      vertex -14.7725 -9.62236 -2.8
    endloop
  endfacet
  facet normal 0 0 1
    outer loop
      vertex -15.4695 -9.97746 -2.8
      vertex -15.4695 -14.0225 -2.8
      vertex -14.7725 -14.3776 -2.8
    endloop
  endfacet
  facet normal -0 0 1
    outer loop
      vertex -16.0225 -10.5305 -2.8
      vertex -15.4695 -14.0225 -2.8
      vertex -15.4695 -9.97746 -2.8
    endloop
  endfacet
  facet normal 0 0 1
    outer loop
      vertex -16.0225 -10.5305 -2.8
      vertex -16.0225 -13.4695 -2.8
      vertex -15.4695 -14.0225 -2.8
    endloop
  endfacet
  facet normal -0 0 1
    outer loop
      vertex -16.3776 -11.2275 -2.8
      vertex -16.0225 -13.4695 -2.8
      vertex -16.0225 -10.5305 -2.8
    endloop
  endfacet
  facet normal 0 0 1
    outer loop
      vertex -16.3776 -11.2275 -2.8
      vertex -16.3776 -12.7725 -2.8
      vertex -16.0225 -13.4695 -2.8
    endloop
  endfacet
  facet normal 0 -0 1
    outer loop
      vertex -16.3776 -12.7725 -2.8
      vertex -16.3776 -11.2275 -2.8
      vertex -16.5 -12 -2.8
    endloop
  endfacet
  facet normal 0.891027 0.453951 0
    outer loop
      vertex -11.6224 12.7725 -2.8
      vertex -11.9775 13.4695 -10.8
      vertex -11.9775 13.4695 -2.8
    endloop
  endfacet
  facet normal 0.891027 0.453951 0
    outer loop
      vertex -11.9775 13.4695 -10.8
      vertex -11.6224 12.7725 -2.8
      vertex -11.6224 12.7725 -10.8
    endloop
  endfacet
  facet normal 0.987679 0.156494 0
    outer loop
      vertex -11.5 12 -2.8
      vertex -11.6224 12.7725 -10.8
      vertex -11.6224 12.7725 -2.8
    endloop
  endfacet
  facet normal 0.987679 0.156494 0
    outer loop
      vertex -11.6224 12.7725 -10.8
      vertex -11.5 12 -2.8
      vertex -11.5 12 -10.8
    endloop
  endfacet
  facet normal 0.707107 0.707107 0
    outer loop
      vertex -11.9775 13.4695 -2.8
      vertex -12.5305 14.0225 -10.8
      vertex -12.5305 14.0225 -2.8
    endloop
  endfacet
  facet normal 0.707107 0.707107 0
    outer loop
      vertex -12.5305 14.0225 -10.8
      vertex -11.9775 13.4695 -2.8
      vertex -11.9775 13.4695 -10.8
    endloop
  endfacet
  facet normal 0 0 1
    outer loop
      vertex -11.6224 12.7725 -2.8
      vertex -11.6224 11.2275 -2.8
      vertex -11.5 12 -2.8
    endloop
  endfacet
  facet normal 0 0 1
    outer loop
      vertex -11.9775 13.4695 -2.8
      vertex -11.6224 11.2275 -2.8
      vertex -11.6224 12.7725 -2.8
    endloop
  endfacet
  facet normal 0 0 1
    outer loop
      vertex -11.9775 13.4695 -2.8
      vertex -11.9775 10.5305 -2.8
      vertex -11.6224 11.2275 -2.8
    endloop
  endfacet
  facet normal 0 0 1
    outer loop
      vertex -12.5305 14.0225 -2.8
      vertex -11.9775 10.5305 -2.8
      vertex -11.9775 13.4695 -2.8
    endloop
  endfacet
  facet normal 0 0 1
    outer loop
      vertex -12.5305 14.0225 -2.8
      vertex -12.5305 9.97746 -2.8
      vertex -11.9775 10.5305 -2.8
    endloop
  endfacet
  facet normal 0 0 1
    outer loop
      vertex -13.2275 14.3776 -2.8
      vertex -12.5305 9.97746 -2.8
      vertex -12.5305 14.0225 -2.8
    endloop
  endfacet
  facet normal 0 0 1
    outer loop
      vertex -13.2275 14.3776 -2.8
      vertex -13.2275 9.62236 -2.8
      vertex -12.5305 9.97746 -2.8
    endloop
  endfacet
  facet normal 0 0 1
    outer loop
      vertex -14 14.5 -2.8
      vertex -13.2275 9.62236 -2.8
      vertex -13.2275 14.3776 -2.8
    endloop
  endfacet
  facet normal 0 0 1
    outer loop
      vertex -14 14.5 -2.8
      vertex -14 9.5 -2.8
      vertex -13.2275 9.62236 -2.8
    endloop
  endfacet
  facet normal -0 0 1
    outer loop
      vertex -14.7725 14.3776 -2.8
      vertex -14 9.5 -2.8
      vertex -14 14.5 -2.8
    endloop
  endfacet
  facet normal 0 0 1
    outer loop
      vertex -14.7725 14.3776 -2.8
      vertex -14.7725 9.62236 -2.8
      vertex -14 9.5 -2.8
    endloop
  endfacet
  facet normal -0 0 1
    outer loop
      vertex -15.4695 14.0225 -2.8
      vertex -14.7725 9.62236 -2.8
      vertex -14.7725 14.3776 -2.8
    endloop
  endfacet
  facet normal 0 0 1
    outer loop
      vertex -15.4695 14.0225 -2.8
      vertex -15.4695 9.97746 -2.8
      vertex -14.7725 9.62236 -2.8
    endloop
  endfacet
  facet normal -0 0 1
    outer loop
      vertex -16.0225 13.4695 -2.8
      vertex -15.4695 9.97746 -2.8
      vertex -15.4695 14.0225 -2.8
    endloop
  endfacet
  facet normal 0 0 1
    outer loop
      vertex -16.0225 13.4695 -2.8
      vertex -16.0225 10.5305 -2.8
      vertex -15.4695 9.97746 -2.8
    endloop
  endfacet
  facet normal -0 0 1
    outer loop
      vertex -16.3776 12.7725 -2.8
      vertex -16.0225 10.5305 -2.8
      vertex -16.0225 13.4695 -2.8
    endloop
  endfacet
  facet normal 0 0 1
    outer loop
      vertex -16.3776 12.7725 -2.8
      vertex -16.3776 11.2275 -2.8
      vertex -16.0225 10.5305 -2.8
    endloop
  endfacet
  facet normal 0 -0 1
    outer loop
      vertex -16.3776 11.2275 -2.8
      vertex -16.3776 12.7725 -2.8
      vertex -16.5 12 -2.8
    endloop
  endfacet
  facet normal 0.453951 -0.891027 0
    outer loop
      vertex -13.2275 9.62236 -10.8
      vertex -12.5305 9.97746 -2.8
      vertex -13.2275 9.62236 -2.8
    endloop
  endfacet
  facet normal 0.453951 -0.891027 0
    outer loop
      vertex -12.5305 9.97746 -2.8
      vertex -13.2275 9.62236 -10.8
      vertex -12.5305 9.97746 -10.8
    endloop
  endfacet
  facet normal -0.453951 0.891027 0
    outer loop
      vertex -14.7725 14.3776 -10.8
      vertex -15.4695 14.0225 -2.8
      vertex -14.7725 14.3776 -2.8
    endloop
  endfacet
  facet normal -0.453951 0.891027 0
    outer loop
      vertex -15.4695 14.0225 -2.8
      vertex -14.7725 14.3776 -10.8
      vertex -15.4695 14.0225 -10.8
    endloop
  endfacet
  facet normal 0.987679 -0.156494 0
    outer loop
      vertex -11.6224 11.2275 -2.8
      vertex -11.5 12 -10.8
      vertex -11.5 12 -2.8
    endloop
  endfacet
  facet normal 0.987679 -0.156494 0
    outer loop
      vertex -11.5 12 -10.8
      vertex -11.6224 11.2275 -2.8
      vertex -11.6224 11.2275 -10.8
    endloop
  endfacet
  facet normal -0.156444 -0.987687 0
    outer loop
      vertex -14.7725 9.62236 -10.8
      vertex -14 9.5 -2.8
      vertex -14.7725 9.62236 -2.8
    endloop
  endfacet
  facet normal -0.156444 -0.987687 -0
    outer loop
      vertex -14 9.5 -2.8
      vertex -14.7725 9.62236 -10.8
      vertex -14 9.5 -10.8
    endloop
  endfacet
  facet normal 0.156494 0.987679 -0
    outer loop
      vertex -13.2275 14.3776 -10.8
      vertex -14 14.5 -2.8
      vertex -13.2275 14.3776 -2.8
    endloop
  endfacet
  facet normal 0.156494 0.987679 0
    outer loop
      vertex -14 14.5 -2.8
      vertex -13.2275 14.3776 -10.8
      vertex -14 14.5 -10.8
    endloop
  endfacet
  facet normal -0.453951 -0.891027 0
    outer loop
      vertex -15.4695 9.97746 -10.8
      vertex -14.7725 9.62236 -2.8
      vertex -15.4695 9.97746 -2.8
    endloop
  endfacet
  facet normal -0.453951 -0.891027 -0
    outer loop
      vertex -14.7725 9.62236 -2.8
      vertex -15.4695 9.97746 -10.8
      vertex -14.7725 9.62236 -10.8
    endloop
  endfacet
  facet normal -0.987679 -0.156494 0
    outer loop
      vertex -16.3776 11.2275 -10.8
      vertex -16.5 12 -2.8
      vertex -16.5 12 -10.8
    endloop
  endfacet
  facet normal -0.987679 -0.156494 0
    outer loop
      vertex -16.5 12 -2.8
      vertex -16.3776 11.2275 -10.8
      vertex -16.3776 11.2275 -2.8
    endloop
  endfacet
  facet normal -0.156494 0.987679 0
    outer loop
      vertex -14 14.5 -10.8
      vertex -14.7725 14.3776 -2.8
      vertex -14 14.5 -2.8
    endloop
  endfacet
  facet normal -0.156494 0.987679 0
    outer loop
      vertex -14.7725 14.3776 -2.8
      vertex -14 14.5 -10.8
      vertex -14.7725 14.3776 -10.8
    endloop
  endfacet
  facet normal -0.891027 0.453951 0
    outer loop
      vertex -16.3776 12.7725 -10.8
      vertex -16.0225 13.4695 -2.8
      vertex -16.0225 13.4695 -10.8
    endloop
  endfacet
  facet normal -0.891027 0.453951 0
    outer loop
      vertex -16.0225 13.4695 -2.8
      vertex -16.3776 12.7725 -10.8
      vertex -16.3776 12.7725 -2.8
    endloop
  endfacet
  facet normal 0.891027 -0.453951 0
    outer loop
      vertex -11.9775 10.5305 -2.8
      vertex -11.6224 11.2275 -10.8
      vertex -11.6224 11.2275 -2.8
    endloop
  endfacet
  facet normal 0.891027 -0.453951 0
    outer loop
      vertex -11.6224 11.2275 -10.8
      vertex -11.9775 10.5305 -2.8
      vertex -11.9775 10.5305 -10.8
    endloop
  endfacet
  facet normal -0.891027 -0.453951 0
    outer loop
      vertex -16.0225 10.5305 -10.8
      vertex -16.3776 11.2275 -2.8
      vertex -16.3776 11.2275 -10.8
    endloop
  endfacet
  facet normal -0.891027 -0.453951 0
    outer loop
      vertex -16.3776 11.2275 -2.8
      vertex -16.0225 10.5305 -10.8
      vertex -16.0225 10.5305 -2.8
    endloop
  endfacet
  facet normal -0.707107 0.707107 0
    outer loop
      vertex -16.0225 13.4695 -10.8
      vertex -15.4695 14.0225 -2.8
      vertex -15.4695 14.0225 -10.8
    endloop
  endfacet
  facet normal -0.707107 0.707107 0
    outer loop
      vertex -15.4695 14.0225 -2.8
      vertex -16.0225 13.4695 -10.8
      vertex -16.0225 13.4695 -2.8
    endloop
  endfacet
  facet normal 0.453951 0.891027 -0
    outer loop
      vertex -12.5305 14.0225 -10.8
      vertex -13.2275 14.3776 -2.8
      vertex -12.5305 14.0225 -2.8
    endloop
  endfacet
  facet normal 0.453951 0.891027 0
    outer loop
      vertex -13.2275 14.3776 -2.8
      vertex -12.5305 14.0225 -10.8
      vertex -13.2275 14.3776 -10.8
    endloop
  endfacet
  facet normal -0.987679 0.156494 0
    outer loop
      vertex -16.5 12 -10.8
      vertex -16.3776 12.7725 -2.8
      vertex -16.3776 12.7725 -10.8
    endloop
  endfacet
  facet normal -0.987679 0.156494 0
    outer loop
      vertex -16.3776 12.7725 -2.8
      vertex -16.5 12 -10.8
      vertex -16.5 12 -2.8
    endloop
  endfacet
  facet normal 0.156444 -0.987687 0
    outer loop
      vertex -14 9.5 -10.8
      vertex -13.2275 9.62236 -2.8
      vertex -14 9.5 -2.8
    endloop
  endfacet
  facet normal 0.156444 -0.987687 0
    outer loop
      vertex -13.2275 9.62236 -2.8
      vertex -14 9.5 -10.8
      vertex -13.2275 9.62236 -10.8
    endloop
  endfacet
  facet normal 0.707132 -0.707081 0
    outer loop
      vertex -12.5305 9.97746 -2.8
      vertex -11.9775 10.5305 -10.8
      vertex -11.9775 10.5305 -2.8
    endloop
  endfacet
  facet normal 0.707132 -0.707081 0
    outer loop
      vertex -11.9775 10.5305 -10.8
      vertex -12.5305 9.97746 -2.8
      vertex -12.5305 9.97746 -10.8
    endloop
  endfacet
  facet normal -0.707132 -0.707081 0
    outer loop
      vertex -15.4695 9.97746 -10.8
      vertex -16.0225 10.5305 -2.8
      vertex -16.0225 10.5305 -10.8
    endloop
  endfacet
  facet normal -0.707132 -0.707081 0
    outer loop
      vertex -16.0225 10.5305 -2.8
      vertex -15.4695 9.97746 -10.8
      vertex -15.4695 9.97746 -2.8
    endloop
  endfacet
  facet normal 0.891027 0.453951 0
    outer loop
      vertex 16.3776 -11.2275 -2.8
      vertex 16.0225 -10.5305 -10.8
      vertex 16.0225 -10.5305 -2.8
    endloop
  endfacet
  facet normal 0.891027 0.453951 0
    outer loop
      vertex 16.0225 -10.5305 -10.8
      vertex 16.3776 -11.2275 -2.8
      vertex 16.3776 -11.2275 -10.8
    endloop
  endfacet
  facet normal 0.987679 0.156494 0
    outer loop
      vertex 16.5 -12 -2.8
      vertex 16.3776 -11.2275 -10.8
      vertex 16.3776 -11.2275 -2.8
    endloop
  endfacet
  facet normal 0.987679 0.156494 0
    outer loop
      vertex 16.3776 -11.2275 -10.8
      vertex 16.5 -12 -2.8
      vertex 16.5 -12 -10.8
    endloop
  endfacet
  facet normal 0.453951 -0.891027 0
    outer loop
      vertex 14.7725 -14.3776 -10.8
      vertex 15.4695 -14.0225 -2.8
      vertex 14.7725 -14.3776 -2.8
    endloop
  endfacet
  facet normal 0.453951 -0.891027 0
    outer loop
      vertex 15.4695 -14.0225 -2.8
      vertex 14.7725 -14.3776 -10.8
      vertex 15.4695 -14.0225 -10.8
    endloop
  endfacet
  facet normal -0.453951 0.891027 0
    outer loop
      vertex 13.2275 -9.62236 -10.8
      vertex 12.5305 -9.97746 -2.8
      vertex 13.2275 -9.62236 -2.8
    endloop
  endfacet
  facet normal -0.453951 0.891027 0
    outer loop
      vertex 12.5305 -9.97746 -2.8
      vertex 13.2275 -9.62236 -10.8
      vertex 12.5305 -9.97746 -10.8
    endloop
  endfacet
  facet normal -0.156494 -0.987679 0
    outer loop
      vertex 13.2275 -14.3776 -10.8
      vertex 14 -14.5 -2.8
      vertex 13.2275 -14.3776 -2.8
    endloop
  endfacet
  facet normal -0.156494 -0.987679 -0
    outer loop
      vertex 14 -14.5 -2.8
      vertex 13.2275 -14.3776 -10.8
      vertex 14 -14.5 -10.8
    endloop
  endfacet
  facet normal 0.707107 -0.707107 0
    outer loop
      vertex 15.4695 -14.0225 -2.8
      vertex 16.0225 -13.4695 -10.8
      vertex 16.0225 -13.4695 -2.8
    endloop
  endfacet
  facet normal 0.707107 -0.707107 0
    outer loop
      vertex 16.0225 -13.4695 -10.8
      vertex 15.4695 -14.0225 -2.8
      vertex 15.4695 -14.0225 -10.8
    endloop
  endfacet
  facet normal -0.156444 0.987687 0
    outer loop
      vertex 14 -9.5 -10.8
      vertex 13.2275 -9.62236 -2.8
      vertex 14 -9.5 -2.8
    endloop
  endfacet
  facet normal -0.156444 0.987687 0
    outer loop
      vertex 13.2275 -9.62236 -2.8
      vertex 14 -9.5 -10.8
      vertex 13.2275 -9.62236 -10.8
    endloop
  endfacet
  facet normal -0.891027 -0.453951 0
    outer loop
      vertex 11.9775 -13.4695 -10.8
      vertex 11.6224 -12.7725 -2.8
      vertex 11.6224 -12.7725 -10.8
    endloop
  endfacet
  facet normal -0.891027 -0.453951 0
    outer loop
      vertex 11.6224 -12.7725 -2.8
      vertex 11.9775 -13.4695 -10.8
      vertex 11.9775 -13.4695 -2.8
    endloop
  endfacet
  facet normal 0 0 1
    outer loop
      vertex 16.3776 -11.2275 -2.8
      vertex 16.3776 -12.7725 -2.8
      vertex 16.5 -12 -2.8
    endloop
  endfacet
  facet normal 0 0 1
    outer loop
      vertex 16.0225 -10.5305 -2.8
      vertex 16.3776 -12.7725 -2.8
      vertex 16.3776 -11.2275 -2.8
    endloop
  endfacet
  facet normal 0 0 1
    outer loop
      vertex 16.0225 -10.5305 -2.8
      vertex 16.0225 -13.4695 -2.8
      vertex 16.3776 -12.7725 -2.8
    endloop
  endfacet
  facet normal 0 0 1
    outer loop
      vertex 15.4695 -9.97746 -2.8
      vertex 16.0225 -13.4695 -2.8
      vertex 16.0225 -10.5305 -2.8
    endloop
  endfacet
  facet normal 0 0 1
    outer loop
      vertex 15.4695 -9.97746 -2.8
      vertex 15.4695 -14.0225 -2.8
      vertex 16.0225 -13.4695 -2.8
    endloop
  endfacet
  facet normal 0 0 1
    outer loop
      vertex 14.7725 -9.62236 -2.8
      vertex 15.4695 -14.0225 -2.8
      vertex 15.4695 -9.97746 -2.8
    endloop
  endfacet
  facet normal 0 0 1
    outer loop
      vertex 14.7725 -9.62236 -2.8
      vertex 14.7725 -14.3776 -2.8
      vertex 15.4695 -14.0225 -2.8
    endloop
  endfacet
  facet normal 0 0 1
    outer loop
      vertex 14 -9.5 -2.8
      vertex 14.7725 -14.3776 -2.8
      vertex 14.7725 -9.62236 -2.8
    endloop
  endfacet
  facet normal 0 0 1
    outer loop
      vertex 14 -9.5 -2.8
      vertex 14 -14.5 -2.8
      vertex 14.7725 -14.3776 -2.8
    endloop
  endfacet
  facet normal -0 0 1
    outer loop
      vertex 13.2275 -9.62236 -2.8
      vertex 14 -14.5 -2.8
      vertex 14 -9.5 -2.8
    endloop
  endfacet
  facet normal 0 0 1
    outer loop
      vertex 13.2275 -9.62236 -2.8
      vertex 13.2275 -14.3776 -2.8
      vertex 14 -14.5 -2.8
    endloop
  endfacet
  facet normal -0 0 1
    outer loop
      vertex 12.5305 -9.97746 -2.8
      vertex 13.2275 -14.3776 -2.8
      vertex 13.2275 -9.62236 -2.8
    endloop
  endfacet
  facet normal 0 0 1
    outer loop
      vertex 12.5305 -9.97746 -2.8
      vertex 12.5305 -14.0225 -2.8
      vertex 13.2275 -14.3776 -2.8
    endloop
  endfacet
  facet normal -0 0 1
    outer loop
      vertex 11.9775 -10.5305 -2.8
      vertex 12.5305 -14.0225 -2.8
      vertex 12.5305 -9.97746 -2.8
    endloop
  endfacet
  facet normal 0 0 1
    outer loop
      vertex 11.9775 -10.5305 -2.8
      vertex 11.9775 -13.4695 -2.8
      vertex 12.5305 -14.0225 -2.8
    endloop
  endfacet
  facet normal -0 0 1
    outer loop
      vertex 11.6224 -11.2275 -2.8
      vertex 11.9775 -13.4695 -2.8
      vertex 11.9775 -10.5305 -2.8
    endloop
  endfacet
  facet normal 0 0 1
    outer loop
      vertex 11.6224 -11.2275 -2.8
      vertex 11.6224 -12.7725 -2.8
      vertex 11.9775 -13.4695 -2.8
    endloop
  endfacet
  facet normal 0 -0 1
    outer loop
      vertex 11.6224 -12.7725 -2.8
      vertex 11.6224 -11.2275 -2.8
      vertex 11.5 -12 -2.8
    endloop
  endfacet
  facet normal -0.707132 0.707081 0
    outer loop
      vertex 11.9775 -10.5305 -10.8
      vertex 12.5305 -9.97746 -2.8
      vertex 12.5305 -9.97746 -10.8
    endloop
  endfacet
  facet normal -0.707132 0.707081 0
    outer loop
      vertex 12.5305 -9.97746 -2.8
      vertex 11.9775 -10.5305 -10.8
      vertex 11.9775 -10.5305 -2.8
    endloop
  endfacet
  facet normal -0.987679 -0.156494 0
    outer loop
      vertex 11.6224 -12.7725 -10.8
      vertex 11.5 -12 -2.8
      vertex 11.5 -12 -10.8
    endloop
  endfacet
  facet normal -0.987679 -0.156494 0
    outer loop
      vertex 11.5 -12 -2.8
      vertex 11.6224 -12.7725 -10.8
      vertex 11.6224 -12.7725 -2.8
    endloop
  endfacet
  facet normal -0.987679 0.156494 0
    outer loop
      vertex 11.5 -12 -10.8
      vertex 11.6224 -11.2275 -2.8
      vertex 11.6224 -11.2275 -10.8
    endloop
  endfacet
  facet normal -0.987679 0.156494 0
    outer loop
      vertex 11.6224 -11.2275 -2.8
      vertex 11.5 -12 -10.8
      vertex 11.5 -12 -2.8
    endloop
  endfacet
  facet normal 0.891027 -0.453951 0
    outer loop
      vertex 16.0225 -13.4695 -2.8
      vertex 16.3776 -12.7725 -10.8
      vertex 16.3776 -12.7725 -2.8
    endloop
  endfacet
  facet normal 0.891027 -0.453951 0
    outer loop
      vertex 16.3776 -12.7725 -10.8
      vertex 16.0225 -13.4695 -2.8
      vertex 16.0225 -13.4695 -10.8
    endloop
  endfacet
  facet normal 0.156444 0.987687 -0
    outer loop
      vertex 14.7725 -9.62236 -10.8
      vertex 14 -9.5 -2.8
      vertex 14.7725 -9.62236 -2.8
    endloop
  endfacet
  facet normal 0.156444 0.987687 0
    outer loop
      vertex 14 -9.5 -2.8
      vertex 14.7725 -9.62236 -10.8
      vertex 14 -9.5 -10.8
    endloop
  endfacet
  facet normal 0.156494 -0.987679 0
    outer loop
      vertex 14 -14.5 -10.8
      vertex 14.7725 -14.3776 -2.8
      vertex 14 -14.5 -2.8
    endloop
  endfacet
  facet normal 0.156494 -0.987679 0
    outer loop
      vertex 14.7725 -14.3776 -2.8
      vertex 14 -14.5 -10.8
      vertex 14.7725 -14.3776 -10.8
    endloop
  endfacet
  facet normal -0.453951 -0.891027 0
    outer loop
      vertex 12.5305 -14.0225 -10.8
      vertex 13.2275 -14.3776 -2.8
      vertex 12.5305 -14.0225 -2.8
    endloop
  endfacet
  facet normal -0.453951 -0.891027 -0
    outer loop
      vertex 13.2275 -14.3776 -2.8
      vertex 12.5305 -14.0225 -10.8
      vertex 13.2275 -14.3776 -10.8
    endloop
  endfacet
  facet normal 0.453951 0.891027 -0
    outer loop
      vertex 15.4695 -9.97746 -10.8
      vertex 14.7725 -9.62236 -2.8
      vertex 15.4695 -9.97746 -2.8
    endloop
  endfacet
  facet normal 0.453951 0.891027 0
    outer loop
      vertex 14.7725 -9.62236 -2.8
      vertex 15.4695 -9.97746 -10.8
      vertex 14.7725 -9.62236 -10.8
    endloop
  endfacet
  facet normal 0.707132 0.707081 0
    outer loop
      vertex 16.0225 -10.5305 -2.8
      vertex 15.4695 -9.97746 -10.8
      vertex 15.4695 -9.97746 -2.8
    endloop
  endfacet
  facet normal 0.707132 0.707081 0
    outer loop
      vertex 15.4695 -9.97746 -10.8
      vertex 16.0225 -10.5305 -2.8
      vertex 16.0225 -10.5305 -10.8
    endloop
  endfacet
  facet normal 0.987679 -0.156494 0
    outer loop
      vertex 16.3776 -12.7725 -2.8
      vertex 16.5 -12 -10.8
      vertex 16.5 -12 -2.8
    endloop
  endfacet
  facet normal 0.987679 -0.156494 0
    outer loop
      vertex 16.5 -12 -10.8
      vertex 16.3776 -12.7725 -2.8
      vertex 16.3776 -12.7725 -10.8
    endloop
  endfacet
  facet normal -0.891027 0.453951 0
    outer loop
      vertex 11.6224 -11.2275 -10.8
      vertex 11.9775 -10.5305 -2.8
      vertex 11.9775 -10.5305 -10.8
    endloop
  endfacet
  facet normal -0.891027 0.453951 0
    outer loop
      vertex 11.9775 -10.5305 -2.8
      vertex 11.6224 -11.2275 -10.8
      vertex 11.6224 -11.2275 -2.8
    endloop
  endfacet
  facet normal -0.707107 -0.707107 0
    outer loop
      vertex 12.5305 -14.0225 -10.8
      vertex 11.9775 -13.4695 -2.8
      vertex 11.9775 -13.4695 -10.8
    endloop
  endfacet
  facet normal -0.707107 -0.707107 0
    outer loop
      vertex 11.9775 -13.4695 -2.8
      vertex 12.5305 -14.0225 -10.8
      vertex 12.5305 -14.0225 -2.8
    endloop
  endfacet
  facet normal 0.891027 0.453951 0
    outer loop
      vertex 16.3776 12.7725 -2.8
      vertex 16.0225 13.4695 -10.8
      vertex 16.0225 13.4695 -2.8
    endloop
  endfacet
  facet normal 0.891027 0.453951 0
    outer loop
      vertex 16.0225 13.4695 -10.8
      vertex 16.3776 12.7725 -2.8
      vertex 16.3776 12.7725 -10.8
    endloop
  endfacet
  facet normal 0.987679 0.156494 0
    outer loop
      vertex 16.5 12 -2.8
      vertex 16.3776 12.7725 -10.8
      vertex 16.3776 12.7725 -2.8
    endloop
  endfacet
  facet normal 0.987679 0.156494 0
    outer loop
      vertex 16.3776 12.7725 -10.8
      vertex 16.5 12 -2.8
      vertex 16.5 12 -10.8
    endloop
  endfacet
  facet normal 0.453951 -0.891027 0
    outer loop
      vertex 14.7725 9.62236 -10.8
      vertex 15.4695 9.97746 -2.8
      vertex 14.7725 9.62236 -2.8
    endloop
  endfacet
  facet normal 0.453951 -0.891027 0
    outer loop
      vertex 15.4695 9.97746 -2.8
      vertex 14.7725 9.62236 -10.8
      vertex 15.4695 9.97746 -10.8
    endloop
  endfacet
  facet normal 0.707107 0.707107 0
    outer loop
      vertex 16.0225 13.4695 -2.8
      vertex 15.4695 14.0225 -10.8
      vertex 15.4695 14.0225 -2.8
    endloop
  endfacet
  facet normal 0.707107 0.707107 0
    outer loop
      vertex 15.4695 14.0225 -10.8
      vertex 16.0225 13.4695 -2.8
      vertex 16.0225 13.4695 -10.8
    endloop
  endfacet
  facet normal -0.891027 0.453951 0
    outer loop
      vertex 11.6224 12.7725 -10.8
      vertex 11.9775 13.4695 -2.8
      vertex 11.9775 13.4695 -10.8
    endloop
  endfacet
  facet normal -0.891027 0.453951 0
    outer loop
      vertex 11.9775 13.4695 -2.8
      vertex 11.6224 12.7725 -10.8
      vertex 11.6224 12.7725 -2.8
    endloop
  endfacet
  facet normal -0.891027 -0.453951 0
    outer loop
      vertex 11.9775 10.5305 -10.8
      vertex 11.6224 11.2275 -2.8
      vertex 11.6224 11.2275 -10.8
    endloop
  endfacet
  facet normal -0.891027 -0.453951 0
    outer loop
      vertex 11.6224 11.2275 -2.8
      vertex 11.9775 10.5305 -10.8
      vertex 11.9775 10.5305 -2.8
    endloop
  endfacet
  facet normal 0.156444 -0.987687 0
    outer loop
      vertex 14 9.5 -10.8
      vertex 14.7725 9.62236 -2.8
      vertex 14 9.5 -2.8
    endloop
  endfacet
  facet normal 0.156444 -0.987687 0
    outer loop
      vertex 14.7725 9.62236 -2.8
      vertex 14 9.5 -10.8
      vertex 14.7725 9.62236 -10.8
    endloop
  endfacet
  facet normal -0.156494 0.987679 0
    outer loop
      vertex 14 14.5 -10.8
      vertex 13.2275 14.3776 -2.8
      vertex 14 14.5 -2.8
    endloop
  endfacet
  facet normal -0.156494 0.987679 0
    outer loop
      vertex 13.2275 14.3776 -2.8
      vertex 14 14.5 -10.8
      vertex 13.2275 14.3776 -10.8
    endloop
  endfacet
  facet normal -0.707107 0.707107 0
    outer loop
      vertex 11.9775 13.4695 -10.8
      vertex 12.5305 14.0225 -2.8
      vertex 12.5305 14.0225 -10.8
    endloop
  endfacet
  facet normal -0.707107 0.707107 0
    outer loop
      vertex 12.5305 14.0225 -2.8
      vertex 11.9775 13.4695 -10.8
      vertex 11.9775 13.4695 -2.8
    endloop
  endfacet
  facet normal -0.987679 0.156494 0
    outer loop
      vertex 11.5 12 -10.8
      vertex 11.6224 12.7725 -2.8
      vertex 11.6224 12.7725 -10.8
    endloop
  endfacet
  facet normal -0.987679 0.156494 0
    outer loop
      vertex 11.6224 12.7725 -2.8
      vertex 11.5 12 -10.8
      vertex 11.5 12 -2.8
    endloop
  endfacet
  facet normal -0.156444 -0.987687 0
    outer loop
      vertex 13.2275 9.62236 -10.8
      vertex 14 9.5 -2.8
      vertex 13.2275 9.62236 -2.8
    endloop
  endfacet
  facet normal -0.156444 -0.987687 -0
    outer loop
      vertex 14 9.5 -2.8
      vertex 13.2275 9.62236 -10.8
      vertex 14 9.5 -10.8
    endloop
  endfacet
  facet normal 0.707132 -0.707081 0
    outer loop
      vertex 15.4695 9.97746 -2.8
      vertex 16.0225 10.5305 -10.8
      vertex 16.0225 10.5305 -2.8
    endloop
  endfacet
  facet normal 0.707132 -0.707081 0
    outer loop
      vertex 16.0225 10.5305 -10.8
      vertex 15.4695 9.97746 -2.8
      vertex 15.4695 9.97746 -10.8
    endloop
  endfacet
  facet normal -0.987679 -0.156494 0
    outer loop
      vertex 11.6224 11.2275 -10.8
      vertex 11.5 12 -2.8
      vertex 11.5 12 -10.8
    endloop
  endfacet
  facet normal -0.987679 -0.156494 0
    outer loop
      vertex 11.5 12 -2.8
      vertex 11.6224 11.2275 -10.8
      vertex 11.6224 11.2275 -2.8
    endloop
  endfacet
  facet normal -0.453951 0.891027 0
    outer loop
      vertex 13.2275 14.3776 -10.8
      vertex 12.5305 14.0225 -2.8
      vertex 13.2275 14.3776 -2.8
    endloop
  endfacet
  facet normal -0.453951 0.891027 0
    outer loop
      vertex 12.5305 14.0225 -2.8
      vertex 13.2275 14.3776 -10.8
      vertex 12.5305 14.0225 -10.8
    endloop
  endfacet
  facet normal 0.156494 0.987679 -0
    outer loop
      vertex 14.7725 14.3776 -10.8
      vertex 14 14.5 -2.8
      vertex 14.7725 14.3776 -2.8
    endloop
  endfacet
  facet normal 0.156494 0.987679 0
    outer loop
      vertex 14 14.5 -2.8
      vertex 14.7725 14.3776 -10.8
      vertex 14 14.5 -10.8
    endloop
  endfacet
  facet normal -0.453951 -0.891027 0
    outer loop
      vertex 12.5305 9.97746 -10.8
      vertex 13.2275 9.62236 -2.8
      vertex 12.5305 9.97746 -2.8
    endloop
  endfacet
  facet normal -0.453951 -0.891027 -0
    outer loop
      vertex 13.2275 9.62236 -2.8
      vertex 12.5305 9.97746 -10.8
      vertex 13.2275 9.62236 -10.8
    endloop
  endfacet
  facet normal 0.891027 -0.453951 0
    outer loop
      vertex 16.0225 10.5305 -2.8
      vertex 16.3776 11.2275 -10.8
      vertex 16.3776 11.2275 -2.8
    endloop
  endfacet
  facet normal 0.891027 -0.453951 0
    outer loop
      vertex 16.3776 11.2275 -10.8
      vertex 16.0225 10.5305 -2.8
      vertex 16.0225 10.5305 -10.8
    endloop
  endfacet
  facet normal 0.987679 -0.156494 0
    outer loop
      vertex 16.3776 11.2275 -2.8
      vertex 16.5 12 -10.8
      vertex 16.5 12 -2.8
    endloop
  endfacet
  facet normal 0.987679 -0.156494 0
    outer loop
      vertex 16.5 12 -10.8
      vertex 16.3776 11.2275 -2.8
      vertex 16.3776 11.2275 -10.8
    endloop
  endfacet
  facet normal 0.453951 0.891027 -0
    outer loop
      vertex 15.4695 14.0225 -10.8
      vertex 14.7725 14.3776 -2.8
      vertex 15.4695 14.0225 -2.8
    endloop
  endfacet
  facet normal 0.453951 0.891027 0
    outer loop
      vertex 14.7725 14.3776 -2.8
      vertex 15.4695 14.0225 -10.8
      vertex 14.7725 14.3776 -10.8
    endloop
  endfacet
  facet normal 0 0 1
    outer loop
      vertex 16.3776 12.7725 -2.8
      vertex 16.3776 11.2275 -2.8
      vertex 16.5 12 -2.8
    endloop
  endfacet
  facet normal 0 0 1
    outer loop
      vertex 16.0225 13.4695 -2.8
      vertex 16.3776 11.2275 -2.8
      vertex 16.3776 12.7725 -2.8
    endloop
  endfacet
  facet normal 0 0 1
    outer loop
      vertex 16.0225 13.4695 -2.8
      vertex 16.0225 10.5305 -2.8
      vertex 16.3776 11.2275 -2.8
    endloop
  endfacet
  facet normal 0 0 1
    outer loop
      vertex 15.4695 14.0225 -2.8
      vertex 16.0225 10.5305 -2.8
      vertex 16.0225 13.4695 -2.8
    endloop
  endfacet
  facet normal 0 0 1
    outer loop
      vertex 15.4695 14.0225 -2.8
      vertex 15.4695 9.97746 -2.8
      vertex 16.0225 10.5305 -2.8
    endloop
  endfacet
  facet normal 0 0 1
    outer loop
      vertex 14.7725 14.3776 -2.8
      vertex 15.4695 9.97746 -2.8
      vertex 15.4695 14.0225 -2.8
    endloop
  endfacet
  facet normal 0 0 1
    outer loop
      vertex 14.7725 14.3776 -2.8
      vertex 14.7725 9.62236 -2.8
      vertex 15.4695 9.97746 -2.8
    endloop
  endfacet
  facet normal 0 0 1
    outer loop
      vertex 14 14.5 -2.8
      vertex 14.7725 9.62236 -2.8
      vertex 14.7725 14.3776 -2.8
    endloop
  endfacet
  facet normal 0 0 1
    outer loop
      vertex 14 14.5 -2.8
      vertex 14 9.5 -2.8
      vertex 14.7725 9.62236 -2.8
    endloop
  endfacet
  facet normal -0 0 1
    outer loop
      vertex 13.2275 14.3776 -2.8
      vertex 14 9.5 -2.8
      vertex 14 14.5 -2.8
    endloop
  endfacet
  facet normal 0 0 1
    outer loop
      vertex 13.2275 14.3776 -2.8
      vertex 13.2275 9.62236 -2.8
      vertex 14 9.5 -2.8
    endloop
  endfacet
  facet normal -0 0 1
    outer loop
      vertex 12.5305 14.0225 -2.8
      vertex 13.2275 9.62236 -2.8
      vertex 13.2275 14.3776 -2.8
    endloop
  endfacet
  facet normal 0 0 1
    outer loop
      vertex 12.5305 14.0225 -2.8
      vertex 12.5305 9.97746 -2.8
      vertex 13.2275 9.62236 -2.8
    endloop
  endfacet
  facet normal -0 0 1
    outer loop
      vertex 11.9775 13.4695 -2.8
      vertex 12.5305 9.97746 -2.8
      vertex 12.5305 14.0225 -2.8
    endloop
  endfacet
  facet normal 0 0 1
    outer loop
      vertex 11.9775 13.4695 -2.8
      vertex 11.9775 10.5305 -2.8
      vertex 12.5305 9.97746 -2.8
    endloop
  endfacet
  facet normal -0 0 1
    outer loop
      vertex 11.6224 12.7725 -2.8
      vertex 11.9775 10.5305 -2.8
      vertex 11.9775 13.4695 -2.8
    endloop
  endfacet
  facet normal 0 0 1
    outer loop
      vertex 11.6224 12.7725 -2.8
      vertex 11.6224 11.2275 -2.8
      vertex 11.9775 10.5305 -2.8
    endloop
  endfacet
  facet normal 0 -0 1
    outer loop
      vertex 11.6224 11.2275 -2.8
      vertex 11.6224 12.7725 -2.8
      vertex 11.5 12 -2.8
    endloop
  endfacet
  facet normal -0.707132 -0.707081 0
    outer loop
      vertex 12.5305 9.97746 -10.8
      vertex 11.9775 10.5305 -2.8
      vertex 11.9775 10.5305 -10.8
    endloop
  endfacet
  facet normal -0.707132 -0.707081 0
    outer loop
      vertex 11.9775 10.5305 -2.8
      vertex 12.5305 9.97746 -10.8
      vertex 12.5305 9.97746 -2.8
    endloop
  endfacet
endsolid OpenSCAD_Model
